<svg width="16" height="16" viewBox="0 0 16 16" fill="none" xmlns="http://www.w3.org/2000/svg">
<path fill-rule="evenodd" clip-rule="evenodd" d="M7.29289 0.292893C7.68342 -0.0976311 8.31658 -0.0976311 8.70711 0.292893L15.7071 7.29289C15.7356 7.32136 15.7623 7.35153 15.7872 7.38325C15.7927 7.39016 15.7982 7.3974 15.8037 7.40469C15.8215 7.42887 15.8383 7.45372 15.8539 7.47934C15.8614 7.49139 15.8685 7.50361 15.8753 7.51594C15.8862 7.53571 15.8966 7.55611 15.9063 7.5769C15.9143 7.5939 15.9218 7.6112 15.9288 7.62866C15.9367 7.64842 15.9439 7.6682 15.9505 7.68826C15.9553 7.70315 15.9599 7.71854 15.9642 7.73401C15.9702 7.75556 15.9754 7.77725 15.9798 7.79921C15.9833 7.81662 15.9864 7.83405 15.989 7.85153C15.9962 7.89964 16 7.94938 16 8L15.996 7.91075C15.9981 7.93433 15.9994 7.95798 15.9998 7.98164L16 8C16 8.00646 15.9999 8.01291 15.9998 8.01934C15.9994 8.04268 15.9981 8.066 15.996 8.08925C15.9943 8.1097 15.9919 8.12942 15.989 8.14896C15.9864 8.16595 15.9833 8.18338 15.9798 8.20073C15.9754 8.22275 15.9702 8.24444 15.9643 8.26584C15.9599 8.28146 15.9553 8.29685 15.9503 8.31214C15.9439 8.3318 15.9367 8.35158 15.9289 8.37106C15.9218 8.3888 15.9143 8.4061 15.9063 8.42322C15.8966 8.44389 15.8862 8.46429 15.8751 8.48428C15.8685 8.49639 15.8614 8.50861 15.854 8.52071C15.8383 8.54628 15.8215 8.57113 15.8037 8.59516C15.7747 8.63433 15.7425 8.67171 15.7071 8.70711L15.7872 8.61675C15.7849 8.61966 15.7826 8.62256 15.7803 8.62545L15.7071 8.70711L8.70711 15.7071C8.31658 16.0976 7.68342 16.0976 7.29289 15.7071C6.90237 15.3166 6.90237 14.6834 7.29289 14.2929L12.585 9H1C0.487164 9 0.0644928 8.61396 0.0067277 8.11662L0 8C0 7.44772 0.447715 7 1 7H12.585L7.29289 1.70711C6.93241 1.34662 6.90468 0.779392 7.2097 0.387101L7.29289 0.292893Z" fill="#152739"/>
</svg>
