<svg width="24" height="18" viewBox="0 0 24 18" fill="none" xmlns="http://www.w3.org/2000/svg">
<path fill-rule="evenodd" clip-rule="evenodd" d="M12 0C15.3798 0 18.3387 1.63249 20.8545 4.31606C21.7189 5.23802 22.4695 6.22245 23.1057 7.20747L23.344 7.58488C23.5277 7.88268 23.674 8.13732 23.7825 8.3382L23.8944 8.55279C24.0352 8.83431 24.0352 9.16569 23.8944 9.44721L23.7825 9.6618C23.674 9.86268 23.5277 10.1173 23.344 10.4151L23.1057 10.7925C22.4695 11.7776 21.7189 12.762 20.8545 13.6839C18.3387 16.3675 15.3798 18 12 18C8.6202 18 5.66131 16.3675 3.14546 13.6839C2.28113 12.762 1.5305 11.7776 0.894336 10.7925L0.655978 10.4151C0.472278 10.1173 0.325969 9.86268 0.217516 9.6618L0.105573 9.44721C-0.0351909 9.16569 -0.0351909 8.83431 0.105573 8.55279L0.217516 8.3382C0.325969 8.13732 0.472278 7.88268 0.655978 7.58488L0.894336 7.20747C1.5305 6.22245 2.28113 5.23802 3.14546 4.31606C5.66131 1.63249 8.6202 0 12 0ZM12 2C9.2548 2 6.77619 3.36751 4.60454 5.68394C3.82825 6.51198 3.14919 7.40255 2.57441 8.29253C2.41128 8.54513 2.26659 8.78237 2.14071 9C2.26659 9.21763 2.41128 9.45487 2.57441 9.70747C3.14919 10.5974 3.82825 11.488 4.60454 12.3161C6.77619 14.6325 9.2548 16 12 16C14.7452 16 17.2238 14.6325 19.3955 12.3161C20.1718 11.488 20.8508 10.5974 21.4256 9.70747C21.5343 9.53907 21.6349 9.3775 21.7272 9.22401L21.8593 9L21.7272 8.77599L21.5316 8.4586C21.4972 8.40403 21.4618 8.34866 21.4256 8.29253C20.8508 7.40255 20.1718 6.51198 19.3955 5.68394C17.2238 3.36751 14.7452 2 12 2ZM12 5C14.2091 5 16 6.79086 16 9C16 11.2091 14.2091 13 12 13C9.79086 13 8 11.2091 8 9C8 6.79086 9.79086 5 12 5ZM12 7C10.8954 7 10 7.89543 10 9C10 10.1046 10.8954 11 12 11C13.1046 11 14 10.1046 14 9C14 7.89543 13.1046 7 12 7Z" fill="#C5C7CD"/>
</svg>
